<svg xmlns="http://www.w3.org/2000/svg" viewBox="0 0 200 200">
    <circle cx="100" cy="100" r="80" fill="#a8a8a8"/>
    <path d="M40 60 L70 90 L100 60 Z" fill="#a8a8a8"/>
    <path d="M160 60 L130 90 L100 60 Z" fill="#a8a8a8"/>
    <path d="M45 65 L70 85 L90 65 Z" fill="#ffb6c1"/>
    <path d="M155 65 L130 85 L110 65 Z" fill="#ffb6c1"/>
    <ellipse cx="70" cy="90" rx="15" ry="20" fill="white"/>
    <ellipse cx="130" cy="90" rx="15" ry="20" fill="white"/>
    <ellipse cx="70" cy="95" rx="8" ry="12" fill="black"/>
    <ellipse cx="130" cy="95" rx="8" ry="12" fill="black"/>
    <circle cx="73" cy="90" r="4" fill="white"/>
    <circle cx="133" cy="90" r="4" fill="white"/>
    <path d="M95 110 L105 110 L100 115 Z" fill="#ffb6c1"/>
    <path d="M85 120 Q100 130 115 120" fill="none" stroke="black" stroke-width="2"/>
</svg>
