<svg xmlns="http://www.w3.org/2000/svg" viewBox="0 0 200 200">
  <title>Spinosaurus</title>
  <path d="M110,120 Q120,110 130,120 L150,130 Q160,135 150,140 L130,145 Q120,150 110,145 Z" fill="#006400"/>
  <path d="M120,145 L125,170 L115,170 Z" fill="#006400"/>
  <path d="M135,145 L140,170 L130,170 Z" fill="#006400"/>
  <path d="M100,115 Q90,105 70,115 L60,120 Q55,125 60,130 L70,135 Q90,140 100,135 Z" fill="#006400"/>
  <path d="M110,120 L115,100 L120,120 L125,95 L130,120 L135,90 L140,120" fill="#006400"/>
  <circle cx="85" cy="120" r="3" fill="black"/>
  <path d="M115,130 L117,140 L113,140" fill="#006400"/>
</svg>
