<svg xmlns="http://www.w3.org/2000/svg" viewBox="0 0 200 200">
  <title>Triceratops</title>
  <path d="M100,100 Q120,90 140,100 L160,110 Q170,115 160,120 L140,125 Q120,130 100,125 Z" fill="#808080"/>
  <path d="M120,125 L125,150 L115,150 Z" fill="#808080"/>
  <path d="M140,125 L145,150 L135,150 Z" fill="#808080"/>
  <path d="M90,100 L70,95 L60,100 L70,105 L90,110" fill="#808080"/>
  <path d="M90,95 Q100,85 110,95 Q100,105 90,95" fill="#808080"/>
  <path d="M75,97 L65,90" fill="none" stroke="#808080" stroke-width="3"/>
  <path d="M75,103 L65,110" fill="none" stroke="#808080" stroke-width="3"/>
  <path d="M85,95 L85,85" fill="none" stroke="#808080" stroke-width="3"/>
  <circle cx="85" cy="100" r="2" fill="black"/>
</svg>
