<svg xmlns="http://www.w3.org/2000/svg" viewBox="0 0 200 200">
  <title>Velociraptor</title>
  <path d="M100,100 Q110,90 120,100 L130,105 Q135,107 130,110 L120,112 Q110,115 100,112 Z" fill="#556B2F"/>
  <path d="M110,112 L115,140 L105,140 Z" fill="#556B2F"/>
  <path d="M120,112 L125,140 L115,140 Z" fill="#556B2F"/>
  <path d="M90,95 Q85,90 80,95 L75,97 Q72,98 75,100 L80,102 Q85,104 90,102 Z" fill="#556B2F"/>
  <circle cx="82" cy="97" r="2" fill="black"/>
  <path d="M130,105 Q140,105 150,107" fill="none" stroke="#556B2F" stroke-width="4"/>
  <path d="M110,140 L108,145 L112,145" fill="#556B2F"/>
</svg>
